REM DIRINDEX 1\2\4,1\2\5,1\2\6,1\2\7,1\3\8,1\3\9
REM DIRNAME cjc037,folder01,folder02,folder03,folder04,folder05,folder06,folder07,folder08
TITLE ""
FILE "Disc2Track28.mp3" MP3
  TRACK 01 AUDIO
    TITLE "0:"
    INDEX 01 00:00:00
  TRACK 02 AUDIO
    TITLE "8:cjc037_1762"
    INDEX 01 00:00:05
  TRACK 03 AUDIO
    TITLE "0:"
    INDEX 01 00:01:71
  TRACK 04 AUDIO
    TITLE "9:cjc037_1763"
    INDEX 01 00:02:04
  TRACK 05 AUDIO
    TITLE "0:"
    INDEX 01 00:05:26
  TRACK 06 AUDIO
    TITLE "8:cjc037_1764"
    INDEX 01 00:07:62
  TRACK 07 AUDIO
    TITLE "0:"
    INDEX 01 00:09:53
  TRACK 08 AUDIO
    TITLE "9:cjc037_1765"
    INDEX 01 00:09:57
  TRACK 09 AUDIO
    TITLE "0:"
    INDEX 01 00:12:26
  TRACK 10 AUDIO
    TITLE "8:cjc037_1766"
    INDEX 01 00:14:58
  TRACK 11 AUDIO
    TITLE "0:"
    INDEX 01 00:16:48
  TRACK 12 AUDIO
    TITLE "9:cjc037_1767"
    INDEX 01 00:16:51
  TRACK 13 AUDIO
    TITLE "0:"
    INDEX 01 00:19:16
  TRACK 14 AUDIO
    TITLE "8:cjc037_1768"
    INDEX 01 00:21:51
  TRACK 15 AUDIO
    TITLE "0:"
    INDEX 01 00:23:38
  TRACK 16 AUDIO
    TITLE "9:cjc037_1769"
    INDEX 01 00:23:40
  TRACK 17 AUDIO
    TITLE "0:"
    INDEX 01 00:25:13
  TRACK 18 AUDIO
    TITLE "8:cjc037_1770"
    INDEX 01 00:27:49
  TRACK 19 AUDIO
    TITLE "0:"
    INDEX 01 00:29:38
  TRACK 20 AUDIO
    TITLE "9:cjc037_1771"
    INDEX 01 00:29:42
  TRACK 21 AUDIO
    TITLE "0:"
    INDEX 01 00:32:56
  TRACK 22 AUDIO
    TITLE "8:cjc037_1772"
    INDEX 01 00:35:14
  TRACK 23 AUDIO
    TITLE "0:"
    INDEX 01 00:36:64
  TRACK 24 AUDIO
    TITLE "9:cjc037_1773"
    INDEX 01 00:36:68
  TRACK 25 AUDIO
    TITLE "0:"
    INDEX 01 00:38:55
  TRACK 26 AUDIO
    TITLE "8:cjc037_1774"
    INDEX 01 00:41:14
  TRACK 27 AUDIO
    TITLE "0:"
    INDEX 01 00:43:07
  TRACK 28 AUDIO
    TITLE "9:cjc037_1775"
    INDEX 01 00:43:13
  TRACK 29 AUDIO
    TITLE "0:"
    INDEX 01 00:46:13
  TRACK 30 AUDIO
    TITLE "8:cjc037_1776"
    INDEX 01 00:48:46
  TRACK 31 AUDIO
    TITLE "0:"
    INDEX 01 00:50:35
  TRACK 32 AUDIO
    TITLE "9:cjc037_1777"
    INDEX 01 00:50:39
  TRACK 33 AUDIO
    TITLE "0:"
    INDEX 01 00:53:31
  TRACK 34 AUDIO
    TITLE "8:cjc037_1778"
    INDEX 01 00:55:69
  TRACK 35 AUDIO
    TITLE "0:"
    INDEX 01 00:57:56
  TRACK 36 AUDIO
    TITLE "9:cjc037_1779"
    INDEX 01 00:57:62
  TRACK 37 AUDIO
    TITLE "0:"
    INDEX 01 01:00:29
  TRACK 38 AUDIO
    TITLE "8:cjc037_1780"
    INDEX 01 01:02:63
  TRACK 39 AUDIO
    TITLE "0:"
    INDEX 01 01:04:50
  TRACK 40 AUDIO
    TITLE "9:cjc037_1781"
    INDEX 01 01:04:54
  TRACK 41 AUDIO
    TITLE "0:"
    INDEX 01 01:07:15
  TRACK 42 AUDIO
    TITLE "8:cjc037_1782"
    INDEX 01 01:09:50
  TRACK 43 AUDIO
    TITLE "0:"
    INDEX 01 01:11:41
  TRACK 44 AUDIO
    TITLE "9:cjc037_1783"
    INDEX 01 01:11:45
  TRACK 45 AUDIO
    TITLE "0:"
    INDEX 01 01:14:74
  TRACK 46 AUDIO
    TITLE "8:cjc037_1784"
    INDEX 01 01:17:32
  TRACK 47 AUDIO
    TITLE "0:"
    INDEX 01 01:19:25
  TRACK 48 AUDIO
    TITLE "9:cjc037_1785"
    INDEX 01 01:19:28
  TRACK 49 AUDIO
    TITLE "0:"
    INDEX 01 01:21:47
  TRACK 50 AUDIO
    TITLE "8:cjc037_1786"
    INDEX 01 01:24:06
  TRACK 51 AUDIO
    TITLE "0:"
    INDEX 01 01:25:74
  TRACK 52 AUDIO
    TITLE "9:cjc037_1787"
    INDEX 01 01:26:07
  TRACK 53 AUDIO
    TITLE "0:"
    INDEX 01 01:28:49
  TRACK 54 AUDIO
    TITLE "8:cjc037_1788"
    INDEX 01 01:31:06
  TRACK 55 AUDIO
    TITLE "0:"
    INDEX 01 01:32:68
  TRACK 56 AUDIO
    TITLE "9:cjc037_1789"
    INDEX 01 01:32:74
  TRACK 57 AUDIO
    TITLE "0:"
    INDEX 01 01:35:67
  TRACK 58 AUDIO
    TITLE "8:cjc037_1790"
    INDEX 01 01:38:28
  TRACK 59 AUDIO
    TITLE "0:"
    INDEX 01 01:40:19
  TRACK 60 AUDIO
    TITLE "9:cjc037_1791"
    INDEX 01 01:40:25
  TRACK 61 AUDIO
    TITLE "0:"
    INDEX 01 01:45:08
